<svg id="Layer_2" data-name="Layer 2" xmlns="http://www.w3.org/2000/svg" viewBox="0 0 20.85781 32"><title>gunspring_64x64-02</title><path d="M13.74617,2.66423a6.123,6.123,0,0,0-3.69163,0A5.85066,5.85066,0,0,0,7.00139,5.87411c-.08127.23793-.15673.47594-.22638.69651A6.30934,6.30934,0,0,0,7.18129,10.715,6.17581,6.17581,0,0,0,9.16063,12.7059c.10451.06392.20895.12776.31928.18579a6.32029,6.32029,0,0,1-1.88645-2.4263,5.64771,5.64771,0,0,1,.3192-5.282A6.27006,6.27006,0,0,1,13.74617,2.66423Z" transform="translate(-5.57109)"/><path d="M8.853,5.62449A5.80453,5.80453,0,0,1,14.91287,3.1634l-.31346-.16835A7.95741,7.95741,0,0,0,9.892,3.77871a5.72853,5.72853,0,0,0-1.48017,1.5788,6.03681,6.03681,0,0,0-.58044,5.06728A6.141,6.141,0,0,0,10.0313,13.031,5.86252,5.86252,0,0,1,8.853,5.62449Z" transform="translate(-5.57109)"/><path d="M20.63606,6.55319A6.874,6.874,0,0,0,19.47517,5.0208a6.61866,6.61866,0,0,0-.87067-.74291,7.12781,7.12781,0,0,1,1.74134,2.612Z" transform="translate(-5.57109)"/><path d="M26.02836,0l-.47012.58045L24.18258,2.35657,22.44124,4.632,20.8334,6.70411c-.21477.2786-.43534.54566-.65591.82426-.51661.65591-1.01578,1.335-1.52658,2.00251-.20895.267-.4179.55147-.621.83588a9.70714,9.70714,0,0,1-2.32179,2.52493,6.2515,6.2515,0,0,1-6.652,0A5.95685,5.95685,0,0,1,6.91431,4.76544v-.029A5.566,5.566,0,0,1,8.15066,3.36655a5.77079,5.77079,0,0,1,1.59042-.88229,6.10257,6.10257,0,0,1,1.79356-.3715,6.57611,6.57611,0,0,1,2.22889.27868,10.25524,10.25524,0,0,1,2.40306,1.16089,6.22246,6.22246,0,0,1,2.96033,4.94534l.44688-.58045A6.791,6.791,0,0,0,16.41621,3.1634c-.2786-.17416-.58045-.31927-.86486-.47593A9.51616,9.51616,0,0,0,14.64,2.22889a6.681,6.681,0,0,0-5.43878-.029,6.29746,6.29746,0,0,0-1.53812.96356A5.93587,5.93587,0,0,0,6.47316,4.53325,6.42941,6.42941,0,0,0,8.795,13.327a6.75645,6.75645,0,0,0,7.19173,0,10.15112,10.15112,0,0,0,2.432-2.61782c.20321-.2786.40635-.58044.6095-.82426l1.5846-2.078v-.029l.209-.267,1.544-1.98515,1.869-2.36239,1.544-1.991.6501-.84162Z" transform="translate(-5.57109)"/><path d="M19.09787,5.7a6.74523,6.74523,0,0,1,.41209.94613.70316.70316,0,0,0,.05229.18,5.40781,5.40781,0,0,1,.26118.76616l.36568-.47593a6.85538,6.85538,0,0,0-2.612-3.36662,2.75177,2.75177,0,0,1,.23219.22057A6.91858,6.91858,0,0,1,19.09787,5.7Z" transform="translate(-5.57109)"/><path d="M16.21307,14.44724a6.78458,6.78458,0,0,1-3.651.5108,6.29778,6.29778,0,0,0,7.11046-2.56553,6.00206,6.00206,0,0,0,.83588-4.00509l-.44695.58044a5.43313,5.43313,0,0,1-.81845,3.1576A5.49076,5.49076,0,0,1,16.21307,14.44724Z" transform="translate(-5.57109)"/><path d="M14.32662,3.43039a6.61163,6.61163,0,0,1,.95775.03486,5.85645,5.85645,0,0,0-3.74973.22638A5.90232,5.90232,0,0,0,9.70048,5.20077a6.01331,6.01331,0,0,0-1.16089,5.00345v.058a6.03679,6.03679,0,0,0,2.28692,3.0822,6.193,6.193,0,0,1-1.79937-3.21569,5.54322,5.54322,0,0,1,1.068-4.61452A5.70575,5.70575,0,0,1,14.32662,3.43039Z" transform="translate(-5.57109)"/><path d="M18.84824,10.51768a5.65174,5.65174,0,0,1-.54558,1.16089,5.53759,5.53759,0,0,1-3.1228,2.3682,7.053,7.053,0,0,1-3.297.53985,6.27477,6.27477,0,0,0,6.86672-2.63525,5.80382,5.80382,0,0,0,.83-2.40306l-.34825.447Z" transform="translate(-5.57109)"/><path d="M20.72314,8.07977a5.4042,5.4042,0,0,1,.03479,2.68746,16.153,16.153,0,0,1-.69069,2.01414c-.1393.34832-.2786.70238-.40055,1.05645-.267.76034-.52822,1.52657-.78358,2.28692l-.04642.1393-.40054,1.16089L15.7603,25.29582a16.53919,16.53919,0,0,1-1.02159,2.24632,20.15584,20.15584,0,0,1-3.01248,3.86l-.24381.26118L11.85391,32l.24374-.26124a20.49535,20.49535,0,0,0,3.0764-3.947,20.78492,20.78492,0,0,0,1.4453-3.48268c.37149-1.09124.73718-2.1883,1.11448-3.27954l1.01578-2.96607.15674-.45276.40047-1.1609.04641-.12768c.25543-.76623.51661-1.52657.78366-2.287.12187-.34825.267-.71394.38885-1.039a16.12624,16.12624,0,0,0,.71394-2.07216,5.897,5.897,0,0,0-.14511-3.297Z" transform="translate(-5.57109)"/>
<style>
@media (prefers-color-scheme: dark) {
    path {
        fill: white !important;
    }
}
@media (prefers-color-scheme: light) {
    path {
        fill: black !important;
    }
}
</style>
</svg>