<?xml version="1.0" encoding="utf-8"?>
<!-- Generator: Adobe Illustrator 24.3.0, SVG Export Plug-In . SVG Version: 6.00 Build 0)  -->
<svg version="1.1" id="Layer_1" xmlns="http://www.w3.org/2000/svg" xmlns:xlink="http://www.w3.org/1999/xlink" x="0px" y="0px"
	 viewBox="0 0 2014.3 1501.1" style="enable-background:new 0 0 2014.3 1501.1;" xml:space="preserve">
<style type="text/css">
	.st0{enable-background:new    ;}
</style>
<g class="st0">
	<path d="M767.8,749.1c-10,18.1-26.5,27.2-49.7,27.2c-37.5,0-56.2-22.1-56.2-66.2V604.2h37.2V701c0,6.7,0.3,12.3,0.9,16.9
		c0.6,4.6,1.9,9.2,3.9,13.9c2,4.7,5.2,8.2,9.5,10.6c4.4,2.4,9.9,3.6,16.6,3.6c25.2,0,37.8-17.4,37.8-52.2v-89.6H805v168h-37.2V749.1
		z"/>
	<path d="M884,627.7c10-18.1,27-27.2,50.9-27.2c38.1,0,57.1,22.1,57.1,66.2v105.6h-37.2v-96.5c0-5.2-0.2-9.7-0.6-13.6
		c-0.4-3.8-1.2-7.9-2.5-12c-1.2-4.2-3-7.5-5.2-10.1c-2.2-2.6-5.3-4.8-9.4-6.6c-4.1-1.8-8.8-2.7-14.2-2.7c-26,0-39,17.4-39,52.2v89.3
		h-37.2v-168H884V627.7z"/>
	<path d="M1126.6,650.1c-3.7-14.2-16-21.2-36.8-21.2c-8.5,0-15.9,1.7-22,5.2c-6.1,3.4-9.2,7.9-9.2,13.3c0,10.4,7.5,17.1,22.5,20
		l23.7,4.7c9.4,1.9,17.3,3.9,23.9,6.1c6.6,2.2,12.8,5.2,18.6,8.9c5.8,3.7,10.2,8.5,13.1,14.4c2.9,5.8,4.4,12.7,4.4,20.6
		c0,16.9-6.9,30.1-20.6,39.8s-30.6,14.5-50.6,14.5c-20.2,0-36.8-5.2-50-15.5c-13.1-10.3-20.7-23.6-22.8-39.8h36.2
		c3.5,18.1,16.1,27.2,37.8,27.2c10,0,18.1-2,24.4-5.9c6.2-4,9.4-9.3,9.4-15.9c0-11.7-9.7-19.4-29-23.1l-25.3-5
		c-33.7-6.7-50.6-23-50.6-49c0-14.4,6.7-26.1,20-35.1c13.3-9.1,29.5-13.6,48.4-13.6c17.3,0,32.4,4.3,45.3,12.8
		c12.9,8.5,21,20.8,24.4,36.8H1126.6z"/>
	<path d="M1232.2,604.2v22.5c10.6-17.5,27.3-26.2,50-26.2c20.8,0,38,8,51.7,24c13.6,16,20.5,37.3,20.5,63.7
		c0,26.4-6.8,47.7-20.5,63.9c-13.6,16.1-30.9,24.2-51.7,24.2c-22.7,0-39.3-8.7-50-26.2v76.8H1195V604.2H1232.2z M1274,746
		c12.9,0,23.1-5.2,30.4-15.5c7.4-10.3,11.1-24.4,11.1-42.3c0-17.7-3.7-31.7-11.1-42c-7.4-10.3-17.5-15.5-30.4-15.5
		c-12.7,0-23.1,4.9-31.2,14.8c-8.1,9.9-12.2,24.1-12.2,42.6c0,18.5,4.1,32.8,12.2,42.8C1250.9,741,1261.3,746,1274,746z"/>
	<path d="M1476.4,642c-6.2-0.6-12.2-0.9-17.8-0.9c-12.5,0-21.8,3.2-27.8,9.5c-6,6.4-9.1,17.5-9.1,33.6v88.1h-37.2v-168h36.5v30
		c9.6-19.8,24.8-29.9,45.6-30.3c2.7,0,5.9,0.2,9.7,0.6V642z"/>
	<path d="M1536.9,545.8v37.5h-37.2v-37.5H1536.9z M1536.9,604.2v168h-37.2v-168H1536.9z"/>
	<path d="M1615.9,627.7c10-18.1,27-27.2,50.9-27.2c38.1,0,57.1,22.1,57.1,66.2v105.6h-37.2v-96.5c0-5.2-0.2-9.7-0.6-13.6
		c-0.4-3.8-1.2-7.9-2.5-12c-1.2-4.2-3-7.5-5.2-10.1c-2.2-2.6-5.3-4.8-9.4-6.6c-4.1-1.8-8.8-2.7-14.2-2.7c-26,0-39,17.4-39,52.2v89.3
		h-37.2v-168h37.2V627.7z"/>
	<path d="M1874.2,604.2h37.2v151.1c0,27.1-6.8,46.8-20.3,59.3c-12.9,12.1-32.8,18.1-59.6,18.1c-19.6,0-35.8-4.2-48.6-12.6
		c-12.8-8.4-20.6-21.4-23.3-38.9h36.8c1.7,7.9,5.3,13.6,10.9,17c5.6,3.4,13.9,5.2,25,5.2c15.4,0,26.5-4.1,33.4-12.2
		c5.6-6.5,8.4-15.9,8.4-28.4v-19.7c-10.6,17.5-27.3,26.2-50,26.2c-20.6,0-37.9-7.8-52-23.3c-14.1-15.5-21.1-36-21.1-61.4
		c0-25.4,7-45.8,21.1-61.2c14.1-15.4,31.4-23.1,52-23.1c22.7,0,39.3,8.7,50,26.2V604.2z M1832.4,630.2c-12.5,0-22.7,4.9-30.6,14.8
		c-7.9,9.9-11.9,23.2-11.9,39.8c0,16.9,4,30.3,11.9,40.3c7.9,10,18.1,15,30.6,15c12.9,0,23.4-4.7,31.4-14.1c8-9.4,12-23.1,12-41.2
		c0-17.9-4-31.5-12-40.8C1855.7,634.8,1845.3,630.2,1832.4,630.2z"/>
</g>
<path d="M155.3,551L155.3,551c-26.7-61.3-24.8-132,11.6-190.2c42-67.1,131.7-98.3,210-90.7c-22-6.9-44.9-10.3-67.9-10.2
	c-22.1,0.2-44,3.8-65,10.6c-50.4,22.6-89.9,64.1-109.9,115.6c-2.9,8.5-5.7,17-8.2,25c-12.6,49.5-6.8,102.1,14.6,149.3
	c17.9,29,42.3,53.5,71.3,71.6c3.7,2.3,7.6,4.5,11.4,6.6C193.8,615.4,170.4,585.3,155.3,551L155.3,551z"/>
<path d="M200.8,376.5c45.9-73.3,133.4-105.9,218-89.5c-3.5-1.7-7.1-3.4-10.6-5c-50.9-8.9-117.6,1.2-169.4,28.1
	c-21.2,15.4-39.3,34.6-53.3,56.8c-35,55.8-40.5,122.1-21.3,182.5c17,37.8,44.4,69.9,78.9,92.8C167.9,572.6,147.7,461.4,200.8,376.5z
	"/>
<path d="M625,410c-11-20.2-24.8-38.8-41-55.2c-9.7-9.7-20.2-18.7-31.3-26.6c27.8,26.2,49.3,58.3,63,94L625,410z"/>
<path d="M456.9,653.9c36.4-23.9,62.8-60.2,88.2-95.3c7.3-10.1,14.6-20.1,22-29.7c19-24.6,38-49.1,57.1-73.7c0.2-0.4,0.5-0.7,0.7-1.1
	l0.3-0.4v0.1l7.6-9.8l55.4-71.4l66.3-85.6l55.7-71.8l23.4-30.2l-14.4-10.9l-17,21.8c-16.5,21.3-33,42.6-49.5,63.9l-63.3,81.8
	l-57.9,74.8c-7.7,10-15.8,19.6-23.6,29.6c-18.6,23.7-36.6,48.1-55.1,72c-7.5,9.7-14.9,19.9-22.3,30.1c-24.6,33.9-50,68.9-83.9,91.1
	c-69.9,45.9-166.1,46-239.4,0.1C104.1,574.8,69.4,443.5,130,346.8l0.7-1.2c12-18.8,27.1-35.4,44.6-49.2
	c17.3-13.6,36.5-24.3,57.1-31.9c20.7-7.6,42.5-12.1,64.6-13.3c27.2-1.3,54.3,2.1,80.3,10.1c30.5,9.4,59.5,24.2,86.5,41.2
	c65.6,41.1,103.4,109.1,106.7,178l16-20.6C577,392.4,537.3,328,473,287.7c-10-6.3-20.7-11.4-31.1-17c-10.9-5.7-21.7-11.5-32.9-16.5
	c-41.5-18.6-87.4-25.2-132.5-19c-21.8,3-43,9-63.2,17.8c-20,8.7-38.7,20.3-55.4,34.4c-16.9,14.3-31.4,31.1-43.2,49.8
	C49,442,86.4,584.2,198,654C277.3,703.6,381.3,703.6,456.9,653.9z"/>
<path d="M569.6,379.4c5.9,11.2,10.8,22.9,14.9,34.9c0.7,2.1,1.2,4.2,1.9,6.3c3.8,8.7,7.1,17.6,9.7,26.8l13.1-17
	c-17.6-49.4-50.5-92-94-121.4c2.9,2.6,5.7,5.2,8.4,8C542.1,335.3,557.6,356.3,569.6,379.4z"/>
<path d="M604.3,495.8c2,39.6-7.3,79.5-29.4,114.9c-25.8,41.2-64.9,69.5-109.1,83.5c-41.3,18.2-86.8,24.6-131.5,18.5
	c97.4,27.5,202.6-7.3,256-92.5c27.8-44.5,37-95.6,30-145.1L604.3,495.8z"/>
<path d="M206.9,538.8c-12.4-59.4,1.7-120,38.6-166.2c36.2-45.2,91.7-72.5,152.3-75.1c11.5-0.4,23,0,34.4,1.4
	c-45.9-12.3-93.5-9.1-135,8c-25.4,13.5-47.8,32-65.9,54.4c-40.2,50.1-55.5,115.8-42,180.2c0.1,0.7,0.4,1.4,0.5,2.1
	c14.7,44.9,43.6,83.9,82.3,111C239.2,623.2,216.1,582.8,206.9,538.8z"/>
<path d="M556.3,604.5c16.4-26.2,26.9-55.6,30.7-86.3l-12.6,16.2c-4.6,5.9-9.1,12.1-13.7,18.3c-4.9,14.8-11.5,29-19.8,42.2
	c-26.6,42.5-67.3,71.4-113.3,84.9c-37.4,16-78.1,22.7-118.6,19.4C404,722.2,504.6,687.2,556.3,604.5z"/>
<path d="M641.5,447.8L628.2,465c8.5,31.6,8.9,64.9,1.2,96.8c-6,24.7-15.7,49-24.9,72.5c-5,12.6-10,25.3-14.4,38
	c-9.7,27.4-19,54.9-28.3,82.4l-1.7,5c-4.7,14.2-9.5,28.3-14.4,42.4l-96.9,282.7c-10,27.1-21.5,55.2-36.2,81.7
	c-28.1,50.6-65.8,92.9-108.5,138.9l-8.7,9.4l13.4,12.1l8.8-9.4c43.4-46.8,81.7-89.9,110.8-142.2c21.4-38.6,35.6-78.1,51.9-125.7
	c13.5-39.4,26.6-78.9,40.1-118.2L557,824.7l5.6-16.4c4.9-14.2,9.8-28.5,14.6-42.8l1.5-4.6c9.3-27.5,18.6-55,28.2-82.2
	c4.5-12.7,9.7-25.9,14.2-37.5c9.5-24,19.2-48.8,25.6-74.7C656.5,527.1,654.2,486.2,641.5,447.8z"/>
</svg>
